<svg xmlns="http://www.w3.org/2000/svg" xmlns:xlink="http://www.w3.org/1999/xlink" width="1190" height="540" version="1.1" viewBox="155 75 1190 540"><defs><pattern id="djs-grid-pattern-365553" width="10" height="10" patternUnits="userSpaceOnUse"><circle cx=".5" cy=".5" r=".5" style="fill:#ccc"/></pattern></defs><g class="djs-group"><g class="djs-element djs-shape" data-element-id="Participant_0ipl7j4" style="display:block" transform="matrix(1 0 0 1 160 80)"><g class="djs-visual"><rect width="1180" height="530" x="0" y="0" rx="0" ry="0" style="stroke-linecap:round;stroke-linejoin:round;stroke:#22242a;stroke-width:1.5px;fill:#fff;fill-opacity:.95"/><path style="fill:none;stroke-linecap:round;stroke-linejoin:round;stroke:#22242a;stroke-width:1.5px" d="M30,0L30,530"/><text class="djs-label" lineHeight="1.2" style="font-family:Arial,sans-serif;font-size:12px;font-weight:400;fill:#22242a" transform="matrix(-1.83697e-16 -1 1 -1.83697e-16 0 530)"><tspan x="191.297" y="18.6">Sistema de Gestão de Filas</tspan></text></g><rect width="1190" height="540" x="-5" y="-5" class="djs-outline" rx="4" style="fill:none"/><rect width="1180" height="530" x="0" y="0" class="djs-hit djs-hit-no-move" style="fill:none;stroke-opacity:0;stroke:#fff;stroke-width:15px"/><rect width="1180" height="530" x="0" y="0" class="djs-hit djs-hit-click-stroke" style="fill:none;stroke-opacity:0;stroke:#fff;stroke-width:15px"/><rect width="30" height="530" x="0" y="0" class="djs-hit djs-hit-all" style="fill:none;stroke-opacity:0;stroke:#fff;stroke-width:15px"/></g><g class="djs-children"><g class="djs-group"><g class="djs-element djs-shape" data-element-id="Lane_1ajvgwx" style="display:block" transform="matrix(1 0 0 1 190 230)"><g class="djs-visual"><rect width="1150" height="220" x="0" y="0" rx="0" ry="0" style="stroke-linecap:round;stroke-linejoin:round;stroke:#22242a;stroke-width:1.5px;fill:#fff;fill-opacity:.25"/><text class="djs-label" lineHeight="1.2" style="font-family:Arial,sans-serif;font-size:12px;font-weight:400;fill:#22242a" transform="matrix(-1.83697e-16 -1 1 -1.83697e-16 0 220)"><tspan x="88.163" y="18.6">Sistema</tspan></text></g><rect width="1160" height="230" x="-5" y="-5" class="djs-outline" rx="4" style="fill:none"/><rect width="1150" height="220" x="0" y="0" class="djs-hit djs-hit-no-move" style="fill:none;stroke-opacity:0;stroke:#fff;stroke-width:15px"/><rect width="1150" height="220" x="0" y="0" class="djs-hit djs-hit-click-stroke" style="fill:none;stroke-opacity:0;stroke:#fff;stroke-width:15px"/><rect width="30" height="220" x="0" y="0" class="djs-hit djs-hit-all" style="fill:none;stroke-opacity:0;stroke:#fff;stroke-width:15px"/></g></g><g class="djs-group"><g class="djs-element djs-shape" data-element-id="Lane_171q59m" style="display:block" transform="matrix(1 0 0 1 190 80)"><g class="djs-visual"><rect width="1150" height="150" x="0" y="0" rx="0" ry="0" style="stroke-linecap:round;stroke-linejoin:round;stroke:#22242a;stroke-width:1.5px;fill:#fff;fill-opacity:.25"/><text class="djs-label" lineHeight="1.2" style="font-family:Arial,sans-serif;font-size:12px;font-weight:400;fill:#22242a" transform="matrix(-1.83697e-16 -1 1 -1.83697e-16 0 150)"><tspan x="49.15" y="18.6">Operador</tspan></text></g><rect width="1160" height="160" x="-5" y="-5" class="djs-outline" rx="4" style="fill:none"/><rect width="1150" height="150" x="0" y="0" class="djs-hit djs-hit-no-move" style="fill:none;stroke-opacity:0;stroke:#fff;stroke-width:15px"/><rect width="1150" height="150" x="0" y="0" class="djs-hit djs-hit-click-stroke" style="fill:none;stroke-opacity:0;stroke:#fff;stroke-width:15px"/><rect width="30" height="150" x="0" y="0" class="djs-hit djs-hit-all" style="fill:none;stroke-opacity:0;stroke:#fff;stroke-width:15px"/></g></g><g class="djs-group"><g class="djs-element djs-shape" data-element-id="Lane_1kscc9y" style="display:block" transform="matrix(1 0 0 1 190 450)"><g class="djs-visual"><rect width="1150" height="160" x="0" y="0" rx="0" ry="0" style="stroke-linecap:round;stroke-linejoin:round;stroke:#22242a;stroke-width:1.5px;fill:#fff;fill-opacity:.25"/><text class="djs-label" lineHeight="1.2" style="font-family:Arial,sans-serif;font-size:12px;font-weight:400;fill:#22242a" transform="matrix(-1.83697e-16 -1 1 -1.83697e-16 0 160)"><tspan x="62.159" y="18.6">Utente</tspan></text></g><rect width="1160" height="170" x="-5" y="-5" class="djs-outline" rx="4" style="fill:none"/><rect width="1150" height="160" x="0" y="0" class="djs-hit djs-hit-no-move" style="fill:none;stroke-opacity:0;stroke:#fff;stroke-width:15px"/><rect width="1150" height="160" x="0" y="0" class="djs-hit djs-hit-click-stroke" style="fill:none;stroke-opacity:0;stroke:#fff;stroke-width:15px"/><rect width="30" height="160" x="0" y="0" class="djs-hit djs-hit-all" style="fill:none;stroke-opacity:0;stroke:#fff;stroke-width:15px"/></g></g><g class="djs-group"><g class="djs-element djs-shape" data-element-id="Event_176el46" style="display:block" transform="matrix(1 0 0 1 232 322)"><g class="djs-visual"><circle cx="18" cy="18" r="18" style="stroke-linecap:round;stroke-linejoin:round;stroke:#22242a;stroke-width:4px;fill:#fff;fill-opacity:.95"/></g><rect width="36" height="36" x="0" y="0" class="djs-hit djs-hit-all" style="fill:none;stroke-opacity:0;stroke:#fff;stroke-width:15px"/><circle cx="18" cy="18" r="24" class="djs-outline" style="fill:none"/></g></g><g class="djs-group"><g class="djs-element djs-shape" data-element-id="Gateway_1cy88jr" style="display:block" transform="matrix(1 0 0 1 335 315)"><g class="djs-visual"><polygon points="25 0 50 25 25 50 0 25" style="stroke-linecap:round;stroke-linejoin:round;stroke:#22242a;stroke-width:2px;fill:#fff;fill-opacity:.95"/><path d="m 16,15 7.42857142857143,9.714285714285715 -7.42857142857143,9.714285714285715 3.428571428571429,0 5.714285714285715,-7.464228571428572 5.714285714285715,7.464228571428572 3.428571428571429,0 -7.42857142857143,-9.714285714285715 7.42857142857143,-9.714285714285715 -3.428571428571429,0 -5.714285714285715,7.464228571428572 -5.714285714285715,-7.464228571428572 -3.428571428571429,0 z" style="fill:#22242a;stroke-linecap:round;stroke-linejoin:round;stroke:#22242a;stroke-width:1px"/></g><rect width="50" height="50" x="0" y="0" class="djs-hit djs-hit-all" style="fill:none;stroke-opacity:0;stroke:#fff;stroke-width:15px"/><rect width="46" height="46" x="2" y="2" class="djs-outline" rx="4" style="transform-box:fill-box;transform:rotate(45deg);transform-origin:center center;fill:none"/></g></g><g class="djs-group"><g class="djs-element djs-shape" data-element-id="Event_11xeb7g" style="display:block" transform="matrix(1 0 0 1 282 522)"><g class="djs-visual"><circle cx="18" cy="18" r="18" style="stroke-linecap:round;stroke-linejoin:round;stroke:#22242a;stroke-width:2px;fill:#fff;fill-opacity:.95"/></g><rect width="36" height="36" x="0" y="0" class="djs-hit djs-hit-all" style="fill:none;stroke-opacity:0;stroke:#fff;stroke-width:15px"/><circle cx="18" cy="18" r="23" class="djs-outline" style="fill:none"/></g></g><g class="djs-group"><g class="djs-element djs-shape" data-element-id="Activity_1plgpcv" style="display:block" transform="matrix(1 0 0 1 420 500)"><g class="djs-visual"><rect width="100" height="80" x="0" y="0" rx="10" ry="10" style="stroke-linecap:round;stroke-linejoin:round;stroke:#22242a;stroke-width:2px;fill:#fff;fill-opacity:.95"/><text class="djs-label" lineHeight="1.2" style="font-family:Arial,sans-serif;font-size:12px;font-weight:400;fill:#22242a"><tspan x="9.146" y="43.6">Entrada na Fila</tspan></text></g><rect width="100" height="80" x="0" y="0" class="djs-hit djs-hit-all" style="fill:none;stroke-opacity:0;stroke:#fff;stroke-width:15px"/><rect width="110" height="90" x="-5" y="-5" class="djs-outline" rx="14" style="fill:none"/></g></g><g class="djs-group"><g class="djs-element djs-shape" data-element-id="Activity_0ph68jk" style="display:block" transform="matrix(1 0 0 1 590 110)"><g class="djs-visual"><rect width="100" height="80" x="0" y="0" rx="10" ry="10" style="stroke-linecap:round;stroke-linejoin:round;stroke:#22242a;stroke-width:2px;fill:#fff;fill-opacity:.95"/><text class="djs-label" lineHeight="1.2" style="font-family:Arial,sans-serif;font-size:12px;font-weight:400;fill:#22242a"><tspan x="15.48" y="36.4">Chamada de </tspan><tspan x="30.826" y="50.8">Espera</tspan></text></g><rect width="100" height="80" x="0" y="0" class="djs-hit djs-hit-all" style="fill:none;stroke-opacity:0;stroke:#fff;stroke-width:15px"/><rect width="110" height="90" x="-5" y="-5" class="djs-outline" rx="14" style="fill:none"/></g></g><g class="djs-group"><g class="djs-element djs-shape" data-element-id="Gateway_1qufuvz" style="display:block" transform="matrix(1 0 0 1 695 315)"><g class="djs-visual"><polygon points="25 0 50 25 25 50 0 25" style="stroke-linecap:round;stroke-linejoin:round;stroke:#22242a;stroke-width:2px;fill:#fff;fill-opacity:.95"/><path d="m 16,15 7.42857142857143,9.714285714285715 -7.42857142857143,9.714285714285715 3.428571428571429,0 5.714285714285715,-7.464228571428572 5.714285714285715,7.464228571428572 3.428571428571429,0 -7.42857142857143,-9.714285714285715 7.42857142857143,-9.714285714285715 -3.428571428571429,0 -5.714285714285715,7.464228571428572 -5.714285714285715,-7.464228571428572 -3.428571428571429,0 z" style="fill:#22242a;stroke-linecap:round;stroke-linejoin:round;stroke:#22242a;stroke-width:1px"/></g><rect width="50" height="50" x="0" y="0" class="djs-hit djs-hit-all" style="fill:none;stroke-opacity:0;stroke:#fff;stroke-width:15px"/><rect width="46" height="46" x="2" y="2" class="djs-outline" rx="4" style="transform-box:fill-box;transform:rotate(45deg);transform-origin:center center;fill:none"/></g></g><g class="djs-group"><g class="djs-element djs-shape" data-element-id="Event_1i6zcxt" style="display:block" transform="matrix(1 0 0 1 852 352)"><g class="djs-visual"><circle cx="18" cy="18" r="18" style="stroke-linecap:round;stroke-linejoin:round;stroke:#22242a;stroke-width:4px;fill:#fff;fill-opacity:.95"/></g><rect width="36" height="36" x="0" y="0" class="djs-hit djs-hit-all" style="fill:none;stroke-opacity:0;stroke:#fff;stroke-width:15px"/><circle cx="18" cy="18" r="24" class="djs-outline" style="fill:none"/></g></g><g class="djs-group"><g class="djs-element djs-shape" data-element-id="Activity_1raa18p" style="display:block" transform="matrix(1 0 0 1 950 490)"><g class="djs-visual"><rect width="100" height="80" x="0" y="0" rx="10" ry="10" style="stroke-linecap:round;stroke-linejoin:round;stroke:#22242a;stroke-width:2px;fill:#fff;fill-opacity:.95"/><text class="djs-label" lineHeight="1.2" style="font-family:Arial,sans-serif;font-size:12px;font-weight:400;fill:#22242a"><tspan x="16.648" y="43.6">Atendimento</tspan></text></g><rect width="100" height="80" x="0" y="0" class="djs-hit djs-hit-all" style="fill:none;stroke-opacity:0;stroke:#fff;stroke-width:15px"/><rect width="110" height="90" x="-5" y="-5" class="djs-outline" rx="14" style="fill:none"/></g></g><g class="djs-group"><g class="djs-element djs-shape" data-element-id="Activity_1pdbutz" style="display:block" transform="matrix(1 0 0 1 1000 110)"><g class="djs-visual"><rect width="100" height="80" x="0" y="0" rx="10" ry="10" style="stroke-linecap:round;stroke-linejoin:round;stroke:#22242a;stroke-width:2px;fill:#fff;fill-opacity:.95"/><text class="djs-label" lineHeight="1.2" style="font-family:Arial,sans-serif;font-size:12px;font-weight:400;fill:#22242a"><tspan x="16.648" y="36.4">Atendimento </tspan><tspan x="23.153" y="50.8">Realizado</tspan></text></g><rect width="100" height="80" x="0" y="0" class="djs-hit djs-hit-all" style="fill:none;stroke-opacity:0;stroke:#fff;stroke-width:15px"/><rect width="110" height="90" x="-5" y="-5" class="djs-outline" rx="14" style="fill:none"/></g></g><g class="djs-group"><g class="djs-element djs-shape" data-element-id="Event_1c9o5z7" style="display:block" transform="matrix(1 0 0 1 1262 132)"><g class="djs-visual"><circle cx="18" cy="18" r="18" style="stroke-linecap:round;stroke-linejoin:round;stroke:#22242a;stroke-width:4px;fill:#fff;fill-opacity:.95"/></g><rect width="36" height="36" x="0" y="0" class="djs-hit djs-hit-all" style="fill:none;stroke-opacity:0;stroke:#fff;stroke-width:15px"/><circle cx="18" cy="18" r="24" class="djs-outline" style="fill:none"/></g></g><g class="djs-group"><g class="djs-element djs-connection" data-element-id="Flow_07q02n7" style="display:block"><g class="djs-visual"><defs><marker id="marker-3t7gcrfkdfwsffwvttmqrdhna" markerHeight="10" markerWidth="10" orient="auto" refX="11" refY="10" viewBox="0 0 20 20"><path d="M 1 5 L 11 10 L 1 15 Z" style="stroke-linecap:round;stroke-linejoin:round;stroke:#22242a;stroke-width:1px;fill:#22242a"/></marker></defs><path data-corner-radius="5" style="fill:none;stroke-linecap:round;stroke-linejoin:round;stroke:#22242a;stroke-width:2px;marker-end:url(#marker-3t7gcrfkdfwsffwvttmqrdhna)" d="M335,340L268,340"/></g><path d="M335,340L268,340" class="djs-hit djs-hit-stroke" style="fill:none;stroke-opacity:0;stroke:#fff;stroke-width:15px"/><rect width="77" height="10" x="263" y="335" class="djs-outline" rx="4" style="fill:none"/></g></g><g class="djs-group"><g class="djs-element djs-connection" data-element-id="Flow_127h5xf" style="display:block"><g class="djs-visual"><defs><marker id="marker-5zvwek34axli1mh70tmej2p1c" markerHeight="10" markerWidth="10" orient="auto" refX="11" refY="10" viewBox="0 0 20 20"><path d="M 1 5 L 11 10 L 1 15 Z" style="stroke-linecap:round;stroke-linejoin:round;stroke:#22242a;stroke-width:1px;fill:#22242a"/></marker></defs><path data-corner-radius="5" style="fill:none;stroke-linecap:round;stroke-linejoin:round;stroke:#22242a;stroke-width:2px;marker-end:url(#marker-5zvwek34axli1mh70tmej2p1c)" d="M300,522L300,479C300,476.5,302.5,474,305,474L355,474C357.5,474,360,471.5,360,469L360,365"/></g><path d="M300,522L300,474L360,474L360,365" class="djs-hit djs-hit-stroke" style="fill:none;stroke-opacity:0;stroke:#fff;stroke-width:15px"/><rect width="70" height="167" x="295" y="360" class="djs-outline" rx="4" style="fill:none"/></g></g><g class="djs-group"><g class="djs-element djs-connection" data-element-id="Flow_0sm1pgn" style="display:block"><g class="djs-visual"><defs><marker id="marker-79nnlejbx2v3igsf8v40sxf5q" markerHeight="10" markerWidth="10" orient="auto" refX="11" refY="10" viewBox="0 0 20 20"><path d="M 1 5 L 11 10 L 1 15 Z" style="stroke-linecap:round;stroke-linejoin:round;stroke:#22242a;stroke-width:1px;fill:#22242a"/></marker></defs><path data-corner-radius="5" style="fill:none;stroke-linecap:round;stroke-linejoin:round;stroke:#22242a;stroke-width:2px;marker-end:url(#marker-79nnlejbx2v3igsf8v40sxf5q)" d="M385,340L465,340C467.5,340,470,342.5,470,345L470,500"/></g><path d="M385,340L470,340L470,500" class="djs-hit djs-hit-stroke" style="fill:none;stroke-opacity:0;stroke:#fff;stroke-width:15px"/><rect width="95" height="170" x="380" y="335" class="djs-outline" rx="4" style="fill:none"/></g></g><g class="djs-group"><g class="djs-element djs-connection" data-element-id="Flow_0tyeqnq" style="display:block"><g class="djs-visual"><defs><marker id="marker-3iogsy8lra1lnpj7bt3tvydez" markerHeight="10" markerWidth="10" orient="auto" refX="11" refY="10" viewBox="0 0 20 20"><path d="M 1 5 L 11 10 L 1 15 Z" style="stroke-linecap:round;stroke-linejoin:round;stroke:#22242a;stroke-width:1px;fill:#22242a"/></marker></defs><path data-corner-radius="5" style="fill:none;stroke-linecap:round;stroke-linejoin:round;stroke:#22242a;stroke-width:2px;marker-end:url(#marker-3iogsy8lra1lnpj7bt3tvydez)" d="M520,540L560,540C562.5,540,565,537.5,565,535L565,155C565,152.5,567.5,150,570,150L590,150"/></g><path d="M520,540L565,540L565,150L590,150" class="djs-hit djs-hit-stroke" style="fill:none;stroke-opacity:0;stroke:#fff;stroke-width:15px"/><rect width="80" height="400" x="515" y="145" class="djs-outline" rx="4" style="fill:none"/></g></g><g class="djs-group"><g class="djs-element djs-connection" data-element-id="Flow_1s3tvky" style="display:block"><g class="djs-visual"><defs><marker id="marker-2v1u6n5dswyu2c9kg0cmkgqg7" markerHeight="10" markerWidth="10" orient="auto" refX="11" refY="10" viewBox="0 0 20 20"><path d="M 1 5 L 11 10 L 1 15 Z" style="stroke-linecap:round;stroke-linejoin:round;stroke:#22242a;stroke-width:1px;fill:#22242a"/></marker></defs><path data-corner-radius="5" style="fill:none;stroke-linecap:round;stroke-linejoin:round;stroke:#22242a;stroke-width:2px;marker-end:url(#marker-2v1u6n5dswyu2c9kg0cmkgqg7)" d="M690,150L715,150C717.5,150,720,152.5,720,155L720,315"/></g><path d="M690,150L720,150L720,315" class="djs-hit djs-hit-stroke" style="fill:none;stroke-opacity:0;stroke:#fff;stroke-width:15px"/><rect width="40" height="175" x="685" y="145" class="djs-outline" rx="4" style="fill:none"/></g></g><g class="djs-group"><g class="djs-element djs-connection" data-element-id="Flow_0g6fhps" style="display:block"><g class="djs-visual"><defs><marker id="marker-3bd0prwf0qztyj63voc6ujl10" markerHeight="10" markerWidth="10" orient="auto" refX="11" refY="10" viewBox="0 0 20 20"><path d="M 1 5 L 11 10 L 1 15 Z" style="stroke-linecap:round;stroke-linejoin:round;stroke:#22242a;stroke-width:1px;fill:#22242a"/></marker></defs><path data-corner-radius="5" style="fill:none;stroke-linecap:round;stroke-linejoin:round;stroke:#22242a;stroke-width:2px;marker-end:url(#marker-3bd0prwf0qztyj63voc6ujl10)" d="M720,365L720,525C720,527.5,722.5,530,725,530L950,530"/></g><path d="M720,365L720,530L950,530" class="djs-hit djs-hit-stroke" style="fill:none;stroke-opacity:0;stroke:#fff;stroke-width:15px"/><rect width="240" height="175" x="715" y="360" class="djs-outline" rx="4" style="fill:none"/></g></g><g class="djs-group"><g class="djs-element djs-connection" data-element-id="Flow_0qigzh1" style="display:block"><g class="djs-visual"><defs><marker id="marker-7p447vx4e02wtqv9wp3e62db1" markerHeight="10" markerWidth="10" orient="auto" refX="11" refY="10" viewBox="0 0 20 20"><path d="M 1 5 L 11 10 L 1 15 Z" style="stroke-linecap:round;stroke-linejoin:round;stroke:#22242a;stroke-width:1px;fill:#22242a"/></marker></defs><path data-corner-radius="5" style="fill:none;stroke-linecap:round;stroke-linejoin:round;stroke:#22242a;stroke-width:2px;marker-end:url(#marker-7p447vx4e02wtqv9wp3e62db1)" d="M745,340L794,340C796.5,340,799,342.5,799,345L799,365C799,367.5,801.5,370,804,370L852,370"/></g><path d="M745,340L799,340L799,370L852,370" class="djs-hit djs-hit-stroke" style="fill:none;stroke-opacity:0;stroke:#fff;stroke-width:15px"/><rect width="117" height="40" x="740" y="335" class="djs-outline" rx="4" style="fill:none"/></g></g><g class="djs-group"><g class="djs-element djs-connection" data-element-id="Flow_104i7y9" style="display:block"><g class="djs-visual"><defs><marker id="marker-euy1efhh77ugmdelkoag2p5sn" markerHeight="10" markerWidth="10" orient="auto" refX="11" refY="10" viewBox="0 0 20 20"><path d="M 1 5 L 11 10 L 1 15 Z" style="stroke-linecap:round;stroke-linejoin:round;stroke:#22242a;stroke-width:1px;fill:#22242a"/></marker></defs><path data-corner-radius="5" style="fill:none;stroke-linecap:round;stroke-linejoin:round;stroke:#22242a;stroke-width:2px;marker-end:url(#marker-euy1efhh77ugmdelkoag2p5sn)" d="M1000,490L1000,345C1000,342.5,1002.5,340,1005,340L1045,340C1047.5,340,1050,337.5,1050,335L1050,190"/></g><path d="M1000,490L1000,340L1050,340L1050,190" class="djs-hit djs-hit-stroke" style="fill:none;stroke-opacity:0;stroke:#fff;stroke-width:15px"/><rect width="60" height="310" x="995" y="185" class="djs-outline" rx="4" style="fill:none"/></g></g><g class="djs-group"><g class="djs-element djs-connection" data-element-id="Flow_1a5oe87" style="display:block"><g class="djs-visual"><defs><marker id="marker-75sztajdcvy1ktmmtgo9le6mj" markerHeight="10" markerWidth="10" orient="auto" refX="11" refY="10" viewBox="0 0 20 20"><path d="M 1 5 L 11 10 L 1 15 Z" style="stroke-linecap:round;stroke-linejoin:round;stroke:#22242a;stroke-width:1px;fill:#22242a"/></marker></defs><path data-corner-radius="5" style="fill:none;stroke-linecap:round;stroke-linejoin:round;stroke:#22242a;stroke-width:2px;marker-end:url(#marker-75sztajdcvy1ktmmtgo9le6mj)" d="M1100,150L1262,150"/></g><path d="M1100,150L1262,150" class="djs-hit djs-hit-stroke" style="fill:none;stroke-opacity:0;stroke:#fff;stroke-width:15px"/><rect width="172" height="10" x="1095" y="145" class="djs-outline" rx="4" style="fill:none"/></g></g></g></g><g class="djs-group"><g class="djs-element djs-shape" data-element-id="Gateway_1cy88jr_label" style="display:block" transform="matrix(1 0 0 1 324 285)"><g class="djs-visual"><text class="djs-label" lineHeight="1.2" style="font-family:Arial,sans-serif;font-size:11px;font-weight:400;fill:#22242a"><tspan x="0" y="9.9">Tem cadastro?</tspan></text></g><rect width="72" height="14" x="0" y="0" class="djs-hit djs-hit-all" style="fill:none;stroke-opacity:0;stroke:#fff;stroke-width:15px"/><rect width="82" height="24" x="-5" y="-5" class="djs-outline" rx="4" style="fill:none"/></g></g><g class="djs-group"><g class="djs-element djs-shape" data-element-id="Flow_07q02n7_label" style="display:block" transform="matrix(1 0 0 1 275 322)"><g class="djs-visual"><text class="djs-label" lineHeight="1.2" style="font-family:Arial,sans-serif;font-size:11px;font-weight:400;fill:#22242a"><tspan x="0" y="9.9">Não</tspan></text></g><rect width="21" height="14" x="0" y="0" class="djs-hit djs-hit-all" style="fill:none;stroke-opacity:0;stroke:#fff;stroke-width:15px"/><rect width="31" height="24" x="-5" y="-5" class="djs-outline" rx="4" style="fill:none"/></g></g><g class="djs-group"><g class="djs-element djs-shape" data-element-id="Event_11xeb7g_label" style="display:block" transform="matrix(1 0 0 1 256 565)"><g class="djs-visual"><text class="djs-label" lineHeight="1.2" style="font-family:Arial,sans-serif;font-size:11px;font-weight:400;fill:#22242a"><tspan x="0" y="9.9">Leitura biométrica</tspan></text></g><rect width="88" height="14" x="0" y="0" class="djs-hit djs-hit-all" style="fill:none;stroke-opacity:0;stroke:#fff;stroke-width:15px"/><rect width="98" height="24" x="-5" y="-5" class="djs-outline" rx="4" style="fill:none"/></g></g><g class="djs-group"><g class="djs-element djs-shape" data-element-id="Flow_0sm1pgn_label" style="display:block" transform="matrix(1 0 0 1 419 322)"><g class="djs-visual"><text class="djs-label" lineHeight="1.2" style="font-family:Arial,sans-serif;font-size:11px;font-weight:400;fill:#22242a"><tspan x="0" y="9.9">Sim</tspan></text></g><rect width="19" height="14" x="0" y="0" class="djs-hit djs-hit-all" style="fill:none;stroke-opacity:0;stroke:#fff;stroke-width:15px"/><rect width="29" height="24" x="-5" y="-5" class="djs-outline" rx="4" style="fill:none"/></g></g><g class="djs-group"><g class="djs-element djs-shape" data-element-id="Flow_1s3tvky_label" style="display:block" transform="matrix(1 0 0 1 631 326)"><g class="djs-visual"><text class="djs-label" lineHeight="1.2" style="font-family:Arial,sans-serif;font-size:11px;font-weight:400;fill:#22242a"><tspan x="2.438" y="9.9">Passou na </tspan><tspan x="5.688" y="23.1">validação </tspan><tspan x="0" y="36.3">biométrica?</tspan></text></g><rect width="57" height="40" x="0" y="0" class="djs-hit djs-hit-all" style="fill:none;stroke-opacity:0;stroke:#fff;stroke-width:15px"/><rect width="67" height="50" x="-5" y="-5" class="djs-outline" rx="4" style="fill:none"/></g></g><g class="djs-group"><g class="djs-element djs-shape" data-element-id="Flow_0qigzh1_label" style="display:block" transform="matrix(1 0 0 1 815 352)"><g class="djs-visual"><text class="djs-label" lineHeight="1.2" style="font-family:Arial,sans-serif;font-size:11px;font-weight:400;fill:#22242a"><tspan x="0" y="9.9">Não</tspan></text></g><rect width="21" height="14" x="0" y="0" class="djs-hit djs-hit-all" style="fill:none;stroke-opacity:0;stroke:#fff;stroke-width:15px"/><rect width="31" height="24" x="-5" y="-5" class="djs-outline" rx="4" style="fill:none"/></g></g><g class="djs-group"><g class="djs-element djs-shape" data-element-id="Flow_0g6fhps_label" style="display:block" transform="matrix(1 0 0 1 833 507)"><g class="djs-visual"><text class="djs-label" lineHeight="1.2" style="font-family:Arial,sans-serif;font-size:11px;font-weight:400;fill:#22242a"><tspan x="0" y="9.9">Sim</tspan></text></g><rect width="19" height="14" x="0" y="0" class="djs-hit djs-hit-all" style="fill:none;stroke-opacity:0;stroke:#fff;stroke-width:15px"/><rect width="29" height="24" x="-5" y="-5" class="djs-outline" rx="4" style="fill:none"/></g></g></svg>