<svg xmlns="http://www.w3.org/2000/svg" width="100%" height="100%" viewBox="0 0 800 600" style="background-color:#fff"><defs><marker id="arrow" markerHeight="6" markerWidth="6" orient="auto-start-reverse" refX="9" refY="5" viewBox="0 0 10 10"><path fill="#22242a" d="M 0 1 L 10 5 L 0 9 z"/></marker><style>.box{fill:#fff;rx:6px}.box,.box-dashed,.lane{stroke:#22242a;stroke-width:1.5px}.box-dashed{fill:#fff;stroke-dasharray:4,4;rx:6px}.lane{fill:#f8f9fa}.lane-title,.text-title{font-weight:700;fill:#22242a}.lane-title{font-family:Arial,sans-serif;font-size:14px}.text-title{font-size:16px}.text-main,.text-sub,.text-title{font-family:Arial,sans-serif}.text-main{font-size:12px;font-weight:700;fill:#22242a}.text-sub{font-size:11px;fill:#555}.line{stroke:#22242a;stroke-width:1.5px;fill:none}</style></defs><text x="400" y="40" class="text-title" text-anchor="middle">Workflow de Avaliação de Desempenho - Fluxo Técnico</text><g transform="translate(40, 80)"><rect width="340" height="480" x="0" y="0" class="lane"/><rect width="340" height="30" x="0" y="0" class="box" style="fill:#e9ecef;stroke-width:1.5px;rx:0"/><text x="170" y="20" class="lane-title" text-anchor="middle">Nível 1 - Colaboradores Operacionais</text><rect width="200" height="50" x="70" y="60" class="box"/><text x="170" y="80" class="text-main" text-anchor="middle">Recursos Humanos</text><text x="170" y="96" class="text-sub" text-anchor="middle">Disponibiliza Autoavaliação</text><path marker-end="url(#arrow)" d="M 170 110 L 170 140" class="line"/><rect width="200" height="50" x="70" y="140" class="box"/><text x="170" y="160" class="text-main" text-anchor="middle">Colaborador</text><text x="170" y="176" class="text-sub" text-anchor="middle">Submete Autoavaliação</text><path marker-end="url(#arrow)" d="M 170 190 L 170 220" class="line"/><rect width="200" height="60" x="70" y="220" class="box-dashed"/><text x="170" y="240" class="text-main" text-anchor="middle">Power Automate</text><text x="170" y="256" class="text-sub" text-anchor="middle">Processa e Notifica</text><text x="170" y="270" class="text-sub" text-anchor="middle">Avaliador e RH</text><path marker-end="url(#arrow)" d="M 170 280 L 170 320" class="line"/><rect width="200" height="50" x="70" y="320" class="box"/><text x="170" y="340" class="text-main" text-anchor="middle">Responsável Directo</text><text x="170" y="356" class="text-sub" text-anchor="middle">Realiza Avaliação</text><path marker-end="url(#arrow)" d="M 170 370 L 170 400" class="line"/><rect width="200" height="50" x="70" y="400" class="box"/><text x="170" y="420" class="text-main" text-anchor="middle">Recursos Humanos</text><text x="170" y="436" class="text-sub" text-anchor="middle">Emite Parecer Final</text></g><g transform="translate(420, 80)"><rect width="340" height="480" x="0" y="0" class="lane"/><rect width="340" height="30" x="0" y="0" class="box" style="fill:#e9ecef;stroke-width:1.5px;rx:0"/><text x="170" y="20" class="lane-title" text-anchor="middle">Nível 2 - Colaboradores Supervisores</text><rect width="200" height="50" x="70" y="60" class="box"/><text x="170" y="80" class="text-main" text-anchor="middle">Recursos Humanos</text><text x="170" y="96" class="text-sub" text-anchor="middle">Disponibiliza Autoavaliação</text><path marker-end="url(#arrow)" d="M 170 110 L 170 140" class="line"/><rect width="200" height="50" x="70" y="140" class="box"/><text x="170" y="160" class="text-main" text-anchor="middle">Supervisor</text><text x="170" y="176" class="text-sub" text-anchor="middle">Submete Autoavaliação</text><path marker-end="url(#arrow)" d="M 170 190 L 170 220" class="line"/><rect width="200" height="60" x="70" y="220" class="box-dashed"/><text x="170" y="240" class="text-main" text-anchor="middle">Power Automate</text><text x="170" y="256" class="text-sub" text-anchor="middle">Processa e Notifica</text><text x="170" y="270" class="text-sub" text-anchor="middle">Director Geral</text><path marker-end="url(#arrow)" d="M 170 280 L 170 320" class="line"/><rect width="200" height="50" x="70" y="320" class="box"/><text x="170" y="340" class="text-main" text-anchor="middle">Director Geral</text><text x="170" y="356" class="text-sub" text-anchor="middle">Realiza Avaliação</text><path marker-end="url(#arrow)" d="M 170 370 L 170 400" class="line"/><rect width="200" height="50" x="70" y="400" class="box"/><text x="170" y="420" class="text-main" text-anchor="middle">Recursos Humanos</text><text x="170" y="436" class="text-sub" text-anchor="middle">Emite Parecer Final</text></g></svg>