<svg xmlns="http://www.w3.org/2000/svg" width="100%" height="100%" viewBox="0 0 800 500" style="background-color:#fff"><defs><marker id="arrow" markerHeight="6" markerWidth="6" orient="auto-start-reverse" refX="9" refY="5" viewBox="0 0 10 10"><path fill="#22242a" d="M 0 1 L 10 5 L 0 9 z"/></marker><style>.box,.lane{stroke:#22242a;stroke-width:1.5px}.box{fill:#fff;rx:6px}.lane{fill:#f8f9fa}.lane-title,.text-title{font-weight:700;fill:#22242a}.lane-title{font-family:Arial,sans-serif;font-size:14px}.text-title{font-size:16px}.text-main,.text-sub,.text-title{font-family:Arial,sans-serif}.text-main{font-size:12px;font-weight:700;fill:#22242a}.text-sub{font-size:11px;fill:#555}.line,.wall{stroke:#22242a;stroke-width:1.5px;fill:none}.wall{stroke:#d9534f;stroke-width:2px;stroke-dasharray:6,4}.wall-label{font-family:Arial,sans-serif;font-size:10px;font-weight:700;fill:#d9534f}</style></defs><text x="400" y="40" class="text-title" text-anchor="middle">Workflow de Avaliação de Desempenho - Arquitetura de Dados</text><rect width="220" height="380" x="20" y="80" class="lane"/><rect width="220" height="30" x="20" y="80" class="box" style="fill:#e9ecef;stroke-width:1.5px;rx:0"/><text x="130" y="100" class="lane-title" text-anchor="middle">1. Inputs (Microsoft Forms)</text><rect width="180" height="50" x="40" y="140" class="box"/><text x="130" y="160" class="text-main" text-anchor="middle">Autoavaliação</text><text x="130" y="176" class="text-sub" text-anchor="middle">Colaboradores e Supervisores</text><rect width="180" height="50" x="40" y="240" class="box"/><text x="130" y="260" class="text-main" text-anchor="middle">Avaliação Operacional</text><text x="130" y="276" class="text-sub" text-anchor="middle">Responsáveis Directos</text><rect width="180" height="50" x="40" y="340" class="box"/><text x="130" y="360" class="text-main" text-anchor="middle">Avaliação de Direcção</text><text x="130" y="376" class="text-sub" text-anchor="middle">Director Geral</text><path marker-end="url(#arrow)" d="M 220 165 L 300 210" class="line"/><path marker-end="url(#arrow)" d="M 220 265 L 300 265" class="line"/><path marker-end="url(#arrow)" d="M 220 365 L 300 320" class="line"/><rect width="200" height="170" x="300" y="180" class="lane" style="rx:8"/><rect width="200" height="30" x="300" y="180" class="box" style="fill:#e9ecef;stroke-width:1.5px;rx:8 8 0 0"/><text x="400" y="200" class="lane-title" text-anchor="middle">2. Motor (Power Automate)</text><rect width="160" height="25" x="320" y="230" class="box"/><text x="400" y="247" class="text-sub" text-anchor="middle">Captura de Submissão</text><rect width="160" height="25" x="320" y="265" class="box"/><text x="400" y="282" class="text-sub" text-anchor="middle">Normalização de Dados</text><rect width="160" height="25" x="320" y="300" class="box"/><text x="400" y="317" class="text-sub" text-anchor="middle">Orquestração de Notificações</text><path marker-end="url(#arrow)" d="M 500 265 L 560 265" class="line"/><text x="530" y="255" class="text-sub" text-anchor="middle">POST</text><path d="M 270 80 L 270 460" class="wall"/><rect width="40" height="15" x="250" y="420" style="fill:#fff"/><text x="270" y="432" class="wall-label" text-anchor="middle">BARREIRA</text><rect width="200" height="110" x="560" y="180" class="lane" style="rx:8"/><rect width="200" height="30" x="560" y="180" class="box" style="fill:#e9ecef;stroke-width:1.5px;rx:8 8 0 0"/><text x="660" y="200" class="lane-title" text-anchor="middle">3. Base Central (SharePoint)</text><text x="660" y="240" class="text-sub" text-anchor="middle">Registo Único por Colaborador</text><text x="660" y="260" class="text-sub" text-anchor="middle">Consolidação Automática</text><text x="660" y="280" class="text-sub" text-anchor="middle">Isolamento de Segurança</text><path marker-end="url(#arrow)" d="M 660 290 L 660 340" class="line"/><text x="670" y="325" class="text-sub" text-anchor="start">Leitura/Escrita</text><rect width="200" height="100" x="560" y="340" class="lane" style="rx:8"/><rect width="200" height="30" x="560" y="340" class="box" style="fill:#e9ecef;stroke-width:1.5px;rx:8 8 0 0"/><text x="660" y="360" class="lane-title" text-anchor="middle">4. Auditoria (RH)</text><text x="660" y="390" class="text-sub" text-anchor="middle">Acesso Total aos Dados</text><text x="660" y="410" class="text-sub" text-anchor="middle">Emissão de Parecer Final</text><text x="660" y="430" class="text-sub" text-anchor="middle">Geração de Relatórios</text></svg>